<!-- <svg xmlns="http://www.w3.org/2000/svg" width="187" height="40" fill="none" viewBox="0 0 187 40">
  <path fill="#3A724F" fill-rule="evenodd" d="M19.87 4.567 22.507 0l7.476 4.317-2.636 4.566c-.463.801.23 1.775 1.138 1.6l5.052-.975 1.635 8.477-5.052.974c-8.172 1.576-14.411-7.184-10.25-14.392Z" clip-rule="evenodd"></path>
  <path fill="#DC8E43" fill-rule="evenodd" d="M15.302 35.433 12.665 40l-7.477-4.316 2.637-4.567c.463-.801-.23-1.775-1.139-1.6l-5.051.974L0 22.015l5.052-.974c8.172-1.576 14.41 7.184 10.25 14.392Z" clip-rule="evenodd"></path>
  <path fill="#14424C" fill-rule="evenodd" d="M15.53 4.567 12.894 0 5.417 4.317l2.637 4.566c.462.801-.23 1.775-1.139 1.6l-5.052-.975L.23 17.985l5.051.974c8.173 1.576 14.412-7.184 10.25-14.392Z" clip-rule="evenodd"></path>
  <path fill="#C85D1B" fill-rule="evenodd" d="M19.65 35.433 22.285 40l7.477-4.316-2.637-4.567c-.462-.801.23-1.775 1.139-1.6l5.051.974 1.635-8.476-5.052-.974c-8.172-1.576-14.41 7.184-10.25 14.392Z" clip-rule="evenodd"></path>
  <path fill="#14424C" d="M163.114 30.153v-8.5c0-1.178.271-2.235.813-3.17.561-.954 1.356-1.702 2.385-2.245 1.029-.542 2.254-.813 3.675-.813a7.23 7.23 0 0 1 1.964.252c.599.15 1.141.365 1.627.645.505.262.935.58 1.291.954h.056a5.5 5.5 0 0 1 1.29-.954 6.772 6.772 0 0 1 1.656-.645 7.541 7.541 0 0 1 1.992-.252c1.421 0 2.646.27 3.675.813 1.028.543 1.823 1.29 2.384 2.245.562.935.842 1.991.842 3.17v8.5h-4.377v-8.36c0-.467-.121-.888-.364-1.262a2.663 2.663 0 0 0-.926-.954 2.508 2.508 0 0 0-1.347-.365c-.505 0-.963.122-1.374.365a2.654 2.654 0 0 0-.926.954 2.4 2.4 0 0 0-.337 1.262v8.36h-4.348v-8.36c0-.467-.122-.888-.365-1.262a2.585 2.585 0 0 0-.954-.954 2.508 2.508 0 0 0-1.347-.365c-.505 0-.963.122-1.374.365a2.654 2.654 0 0 0-.926.954 2.41 2.41 0 0 0-.337 1.262v8.36h-4.348ZM153.603 30.49c-1.477 0-2.759-.28-3.843-.842-1.066-.58-1.889-1.356-2.469-2.328-.58-.991-.87-2.086-.87-3.283v-8.276h4.349v8.164c0 .505.121.973.364 1.403.243.411.571.748.982 1.01.43.243.917.365 1.459.365.524 0 .991-.122 1.403-.365.43-.262.767-.599 1.01-1.01.243-.43.365-.898.365-1.403v-8.164h4.348v8.276c0 1.197-.281 2.292-.842 3.283-.561.972-1.374 1.749-2.44 2.328-1.048.561-2.32.842-3.816.842ZM132.414 30.153v-3.45h6.93c.187 0 .355-.038.505-.113.149-.093.271-.215.364-.364a.93.93 0 0 0 0-.982.9.9 0 0 0-.364-.337.934.934 0 0 0-.505-.14h-2.525c-.936 0-1.787-.15-2.553-.449a4.052 4.052 0 0 1-1.796-1.459c-.43-.673-.645-1.543-.645-2.609 0-.823.196-1.571.589-2.244a4.76 4.76 0 0 1 1.655-1.628 4.568 4.568 0 0 1 2.329-.617h6.929v3.479h-6.256a.97.97 0 0 0-.673.253.841.841 0 0 0-.253.617c0 .262.085.486.253.673a.97.97 0 0 0 .673.253h2.469c1.047 0 1.945.159 2.693.476.767.3 1.356.786 1.768 1.46.43.673.645 1.542.645 2.608 0 .842-.215 1.609-.645 2.3a4.613 4.613 0 0 1-1.684 1.656c-.692.412-1.477.617-2.356.617h-7.547ZM122.94 15.425c1.216 0 2.291.196 3.226.589a6.41 6.41 0 0 1 2.413 1.627 6.993 6.993 0 0 1 1.543 2.469c.355.935.533 1.973.533 3.114 0 1.421-.299 2.684-.898 3.787a6.471 6.471 0 0 1-2.412 2.553c-1.029.617-2.226.926-3.591.926-.58 0-1.132-.075-1.656-.224a5.312 5.312 0 0 1-1.402-.646 3.9 3.9 0 0 1-1.038-1.038h-.085v7.66h-4.348V23.223c0-1.59.318-2.965.954-4.124a6.666 6.666 0 0 1 2.693-2.694c1.16-.654 2.516-.981 4.068-.981Zm0 3.759c-.673 0-1.262.168-1.767.505-.487.318-.861.767-1.123 1.347-.261.56-.392 1.197-.392 1.907 0 .711.131 1.347.392 1.908.262.561.636 1.01 1.123 1.347.505.318 1.094.477 1.767.477.673 0 1.253-.16 1.739-.477a3.297 3.297 0 0 0 1.123-1.347c.28-.561.42-1.197.42-1.908 0-.71-.14-1.346-.42-1.907-.262-.58-.636-1.03-1.123-1.347-.486-.337-1.066-.505-1.739-.505ZM108.617 30.153V15.761h4.377v14.392h-4.377Zm2.188-16.019c-.692 0-1.29-.252-1.795-.757-.505-.505-.758-1.104-.758-1.796s.253-1.29.758-1.795c.505-.524 1.103-.786 1.795-.786s1.291.262 1.796.786c.505.505.757 1.103.757 1.795s-.252 1.29-.757 1.796c-.505.505-1.104.757-1.796.757ZM99.105 30.49c-1.477 0-2.805-.327-3.984-.982a7.462 7.462 0 0 1-2.805-2.693c-.673-1.141-1.01-2.422-1.01-3.844 0-1.44.337-2.721 1.01-3.843a7.462 7.462 0 0 1 2.805-2.693c1.179-.674 2.507-1.01 3.984-1.01 1.478 0 2.796.336 3.956 1.01a7.25 7.25 0 0 1 2.777 2.693c.692 1.122 1.038 2.403 1.038 3.843 0 1.422-.346 2.703-1.038 3.844a7.25 7.25 0 0 1-2.777 2.693c-1.178.655-2.497.982-3.956.982Zm0-3.787c.692 0 1.291-.169 1.796-.505a3.424 3.424 0 0 0 1.178-1.347c.281-.561.421-1.197.421-1.908 0-.692-.14-1.318-.421-1.88a3.423 3.423 0 0 0-1.178-1.346c-.505-.337-1.104-.505-1.796-.505s-1.3.168-1.823.505a3.428 3.428 0 0 0-1.179 1.347 4.144 4.144 0 0 0-.42 1.88c0 .71.14 1.346.42 1.907a3.43 3.43 0 0 0 1.179 1.347c.523.336 1.131.505 1.823.505ZM77.174 35.849v-3.732h7.181c.281 0 .515-.093.702-.28a.83.83 0 0 0 .28-.646v-3.17h-.084a6.59 6.59 0 0 1-1.206 1.094c-.412.3-.88.524-1.403.674a6.023 6.023 0 0 1-1.711.224c-1.272 0-2.413-.3-3.423-.898-.991-.617-1.777-1.468-2.357-2.553-.56-1.084-.841-2.319-.841-3.703 0-1.365.29-2.609.87-3.731.598-1.122 1.468-2.02 2.609-2.693 1.14-.674 2.534-1.01 4.18-1.01 1.571 0 2.927.327 4.068.982a6.624 6.624 0 0 1 2.693 2.72c.636 1.16.954 2.526.954 4.097v8.416c0 1.29-.383 2.31-1.15 3.058-.748.767-1.786 1.15-3.114 1.15h-8.248Zm4.825-9.483c.673 0 1.253-.15 1.74-.449a3.18 3.18 0 0 0 1.121-1.262 3.834 3.834 0 0 0 .393-1.74c0-.673-.13-1.29-.392-1.851-.262-.561-.636-1.001-1.123-1.319-.486-.337-1.066-.505-1.74-.505-.654 0-1.234.159-1.739.477-.486.318-.86.748-1.122 1.29-.261.543-.392 1.15-.392 1.824 0 .655.13 1.253.392 1.796.262.523.636.944 1.123 1.262.504.318 1.084.477 1.739.477ZM65.473 30.49c-1.477 0-2.805-.327-3.983-.982a7.46 7.46 0 0 1-2.806-2.693c-.673-1.141-1.01-2.422-1.01-3.844 0-1.44.337-2.721 1.01-3.843a7.46 7.46 0 0 1 2.806-2.693c1.178-.674 2.506-1.01 3.983-1.01 1.478 0 2.796.336 3.956 1.01a7.252 7.252 0 0 1 2.777 2.693c.692 1.122 1.038 2.403 1.038 3.843 0 1.422-.346 2.703-1.038 3.844a7.252 7.252 0 0 1-2.777 2.693c-1.178.655-2.497.982-3.956.982Zm0-3.787c.692 0 1.29-.169 1.796-.505a3.43 3.43 0 0 0 1.178-1.347c.28-.561.42-1.197.42-1.908 0-.692-.14-1.318-.42-1.88a3.429 3.429 0 0 0-1.178-1.346c-.505-.337-1.104-.505-1.796-.505s-1.3.168-1.823.505a3.428 3.428 0 0 0-1.179 1.347 4.145 4.145 0 0 0-.42 1.88c0 .71.14 1.346.42 1.907a3.43 3.43 0 0 0 1.179 1.347c.523.336 1.131.505 1.823.505ZM51.547 30.153c-1.216 0-2.282-.27-3.198-.813a5.763 5.763 0 0 1-2.132-2.16c-.505-.898-.758-1.89-.758-2.974V10.515h4.713v14.027c0 .45.16.842.477 1.179.318.336.71.505 1.178.505h5.19v3.927h-5.47Z"></path>
</svg> -->

<svg xmlns="http://www.w3.org/2000/svg" xmlns:xlink="http://www.w3.org/1999/xlink" version="1.1" width="1000" height="1000" viewBox="0 0 -200 -200" xml:space="preserve">
  <desc>Created with Fabric.js 3.5.0</desc>
  <defs></defs>
  <rect x="0" y="0" width="100%" height="100%" fill="#ffffff"></rect>
  <g transform="matrix(5.9219 0 0 6.4891 -348.3562 438.5252)" id="15618">
    <g style="" vector-effect="non-scaling-stroke">
      <g transform="matrix(0.0399 0 0 0.0399 97.7487 -12.4631)">
        <path style="stroke: none; stroke-width: 0; stroke-dasharray: none; stroke-linecap: butt; stroke-dashoffset: 0; stroke-linejoin: miter; stroke-miterlimit: 4; is-custom-font: none; font-file-url: none; fill: rgb(78, 3, 252); fill-rule: nonzero; opacity: 1;" transform=" translate(-448.8438, -192.037)" d="M 251.54 267.02 C 259.17 263.79999999999995 266.73 260.40999999999997 274.43 257.37 C 318.18 240.14000000000001 361.93 222.89000000000001 405.84000000000003 206.05 C 408.76000000000005 204.93 413.54 206.15 416.45000000000005 207.92000000000002 C 441.97 223.4 471.03000000000003 219.33 487.90000000000003 197.54000000000002 C 504.03000000000003 176.70000000000002 500.98 147.01000000000002 480.99 130.27000000000004 C 460.27 112.92000000000004 429.67 115.07000000000004 412.12 135.59000000000003 C 407.96 140.46000000000004 403.69 146.29000000000002 402.4 152.31000000000003 C 400.60999999999996 160.62000000000003 395.33 162.67000000000002 388.73999999999995 165.22000000000003 C 337.86999999999995 184.88000000000002 287.10999999999996 204.82000000000002 236.31999999999996 224.69000000000003 C 223.68999999999997 229.63000000000002 213.57999999999996 237.42000000000002 207.81999999999996 250.86 C 168.53999999999996 234.28000000000003 129.56999999999996 217.82000000000002 90.59999999999997 201.38000000000002 C 84.56999999999996 198.84000000000003 78.45999999999997 196.50000000000003 72.44999999999996 193.90000000000003 C 66.80999999999996 191.46000000000004 60.59999999999996 188.01000000000005 62.47999999999996 181.20000000000005 C 63.70999999999996 176.73000000000005 68.32999999999996 171.78000000000006 72.68999999999997 169.79000000000005 C 117.75999999999996 149.25000000000006 163.31999999999996 129.78000000000006 208.27999999999997 109.02000000000004 C 282.68999999999994 74.67000000000004 356.84 39.77000000000004 430.89 4.650000000000034 C 444.11 -1.6199999999999655 455.49 -1.5199999999999658 468.93 4.810000000000034 C 556.6 46.12000000000003 644.62 86.70000000000003 732.56 127.43000000000004 C 761.1199999999999 140.65000000000003 789.8599999999999 153.47000000000003 818.4 166.73000000000002 C 825.53 170.04000000000002 835.49 172.18 835.55 181.83 C 835.6099999999999 191.31 825.54 192.74 818.75 195.72000000000003 C 752.24 224.88000000000002 685.67 253.92000000000002 618.97 282.62 C 610.88 286.1 606.95 290.64 608.48 299.39 C 610.85 312.89 604.07 319.44 592.0600000000001 324.45 C 546.33 343.55 501.01000000000005 363.64 455.37000000000006 382.96 C 451.68000000000006 384.52 446.13000000000005 384.4 442.4100000000001 382.82 C 396.5200000000001 363.3 350.94000000000005 343.03999999999996 304.95000000000005 323.75 C 293.61000000000007 318.99 287.12000000000006 312.79 289.13000000000005 300.17 C 290.97 288.6 286.13000000000005 282.40000000000003 274.95000000000005 279.29 C 266.96000000000004 277.06 259.50000000000006 272.97 251.80000000000004 269.70000000000005 C 251.71000000000004 268.81000000000006 251.61000000000004 267.9200000000001 251.52000000000004 267.02000000000004 Z" stroke-linecap="round" />
      </g>
      <g transform="matrix(0.0399 0 0 0.0399 94.8408 3.0072)">
        <path style="stroke: none; stroke-width: 0; stroke-dasharray: none; stroke-linecap: butt; stroke-dashoffset: 0; stroke-linejoin: miter; stroke-miterlimit: 4; is-custom-font: none; font-file-url: none; fill: rgb(78, 3, 252); fill-rule: nonzero; opacity: 1;" transform=" translate(-375.998, -579.6231)" d="M 200.71 801.39 C 223.56 813.8 245.88 827.35 269.38 838.37 C 309.42 857.15 351.69 868.72 395.99 872.23 C 405.79 873.01 412.61 879.47 412.24 887.02 C 411.85 895.03 403.93 901.24 394.05 900.4 C 351.15000000000003 896.76 309.76 886.62 270.17 869.78 C 175.33 829.43 104.58000000000001 762.22 54.29000000000002 673.21 C 13.24 600.52 -4.43 522.37 0.94 438.71 C 3.09 405.17999999999995 9.08 372.67999999999995 17.44 340.39 C 17.990000000000002 338.28 18.560000000000002 336.15999999999997 19.37 334.14 C 22.79 325.65999999999997 29.590000000000003 322.06 37.11 324.63 C 44.36 327.11 47.18 334.46999999999997 45.16 343.05 C 39.599999999999994 366.63 32.529999999999994 390.06 29.429999999999996 413.98 C 21.559999999999995 474.8 27.759999999999998 534.44 47.989999999999995 592.69 C 59.42999999999999 625.6400000000001 75.47999999999999 656.0400000000001 93.82 685.4300000000001 C 95.41 687.97 97.32 690.3100000000001 99.42999999999999 693.2500000000001 C 102.32 675.6900000000002 103.77999999999999 658.6700000000001 108.05999999999999 642.3900000000001 C 123.94999999999999 581.94 159.67 535.7800000000001 213.01999999999998 503.6600000000001 C 262.5 473.87000000000006 317.17999999999995 459.8400000000001 374.07 452.9000000000001 C 433.74 445.6200000000001 493.81 440.68000000000006 552.13 424.9200000000001 C 611.65 408.8400000000001 664.84 381.9700000000001 701.54 330.3900000000001 C 713.86 313.0700000000001 722.4399999999999 293.0800000000001 732.64 274.2600000000001 C 733.66 272.3700000000001 733.55 269.73000000000013 734.85 268.1600000000001 C 737.63 264.7800000000001 740.98 261.87000000000006 744.1 258.7700000000001 C 746.83 262.55000000000007 751.87 266.3200000000001 751.89 270.1200000000001 C 752.01 287.8000000000001 752.48 305.7700000000001 749.66 323.1300000000001 C 737.37 398.7500000000001 691.65 450.0800000000001 627.4 487.4300000000001 C 581.3199999999999 514.2100000000002 530.81 527.2500000000001 478.71 535.1500000000001 C 427.88 542.8600000000001 376.63 548.33 326.21 558.1200000000001 C 268.34999999999997 569.3600000000001 215.82999999999998 593.2700000000001 173.60999999999999 636.1300000000001 C 151.89 658.1700000000001 135.29999999999998 683.5200000000001 123.74999999999999 712.2700000000001 C 121.35999999999999 718.2100000000002 121.51999999999998 722.83 125.76999999999998 727.5900000000001 C 133.36999999999998 736.1100000000001 140.76999999999998 744.7900000000002 149.07 754.3400000000001 C 152 749.1100000000001 154.03 745.3700000000001 156.15 741.6900000000002 C 184.02 693.2200000000001 227.33 664.2300000000001 278.59000000000003 645.7000000000002 C 321.63000000000005 630.1400000000002 366.51000000000005 622.9000000000002 411.78000000000003 617.5600000000002 C 467.20000000000005 611.0300000000002 522.69 604.5400000000002 575.21 584.0800000000002 C 645.8000000000001 556.5700000000002 698.72 509.08000000000015 734.4300000000001 442.3700000000001 C 735.58 440.22000000000014 736.9200000000001 438.16000000000014 739.5000000000001 433.85000000000014 C 739.1600000000001 438.08000000000015 739.2300000000001 439.96000000000015 738.8300000000002 441.7400000000001 C 730.3300000000002 479.96000000000015 714.5900000000001 514.8900000000001 691.1200000000001 546.3200000000002 C 666.0700000000002 579.8600000000001 638.7900000000001 611.3700000000001 608.2200000000001 640.0800000000002 C 564.1200000000001 681.4900000000001 510.92000000000013 701.5200000000002 451.8900000000001 709.3200000000002 C 409.9000000000001 714.8700000000001 367.6800000000001 719.7800000000002 326.30000000000007 728.4900000000001 C 279.7900000000001 738.2800000000001 238.07000000000005 759.2000000000002 205.02000000000007 794.7600000000001 C 203.97000000000006 795.8900000000001 202.97000000000006 797.0900000000001 202.00000000000006 798.2900000000001 C 201.85000000000005 798.47 201.98000000000005 798.8800000000001 201.98000000000005 799.19 C 201.56000000000006 799.9300000000001 201.14000000000004 800.6600000000001 200.72000000000006 801.4000000000001 Z" stroke-linecap="round" />
      </g>
      <g transform="matrix(0.0399 0 0 0.0399 106.6342 7.7807)">
        <path style="stroke: none; stroke-width: 0; stroke-dasharray: none; stroke-linecap: butt; stroke-dashoffset: 0; stroke-linejoin: miter; stroke-miterlimit: 4; is-custom-font: none; font-file-url: none; fill: rgb(78, 3, 252); fill-rule: nonzero; opacity: 1;" transform=" translate(-671.315, -699.115)" d="M 752.16 543.06 C 772.56 557.8699999999999 791.87 571.89 811.87 586.41 C 738.3 676.3199999999999 665.35 765.4499999999999 591.9200000000001 855.18 C 571.7700000000001 841.3199999999999 551.6300000000001 827.4699999999999 530.7600000000001 813.1099999999999 C 604.4800000000001 723.1799999999998 678.0300000000001 633.4699999999999 752.1500000000001 543.05 Z" stroke-linecap="round" />
      </g>
      <g transform="matrix(0.0399 0 0 0.0399 109.1302 9.3114)">
        <path style="stroke: none; stroke-width: 0; stroke-dasharray: none; stroke-linecap: butt; stroke-dashoffset: 0; stroke-linejoin: miter; stroke-miterlimit: 4; is-custom-font: none; font-file-url: none; fill: rgb(78, 3, 252); fill-rule: nonzero; opacity: 1;" transform=" translate(-733.82, -737.45)" d="M 626.47 878.89 C 619.73 874.46 613.26 870.1999999999999 605.5400000000001 865.13 C 679.1000000000001 775.36 752.21 686.14 826.07 596.01 C 838.1400000000001 605.22 849.86 614.16 862.1 623.49 C 812.13 735.3 734.4100000000001 820.56 626.47 878.89 Z" stroke-linecap="round" />
      </g>
      <g transform="matrix(0.0399 0 0 0.0399 92.2933 -7.8823)">
        <path style="stroke: none; stroke-width: 0; stroke-dasharray: none; stroke-linecap: butt; stroke-dashoffset: 0; stroke-linejoin: miter; stroke-miterlimit: 4; is-custom-font: none; font-file-url: none; fill: rgb(78, 3, 252); fill-rule: nonzero; opacity: 1;" transform=" translate(-312.063, -306.7532)" d="M 239.58 333.54 C 248.49 337.41 257.35 339.98 264.8 344.75 C 285.57 358.06 295.07 377.6 291.85 402.15 C 288.75 425.76 275.46000000000004 442.28 253.06000000000003 450.57 C 229.30000000000004 459.37 207.48000000000002 455.15999999999997 188.88000000000002 437.89 C 171.28000000000003 421.55 166.62000000000003 401.01 171.94000000000003 378.06 C 177.21000000000004 355.32 192.16000000000003 342.17 214.53000000000003 337.38 C 220.23000000000002 336.15999999999997 221.21000000000004 333.49 221.16000000000003 328.44 C 220.96000000000004 308.5 221.44000000000003 288.56 221.03000000000003 268.62 C 220.69000000000003 252.2 227.59000000000003 241.81 243.18000000000004 235.93 C 290.08000000000004 218.25 336.80000000000007 200.10000000000002 383.49 181.89000000000001 C 399.44 175.67000000000002 415.11 168.75 430.92 162.19000000000003 C 434.37 160.76000000000002 438.17 157.98000000000002 441.32 158.55000000000004 C 445.87 159.37000000000003 449.96999999999997 162.68000000000004 454.26 164.93000000000004 C 452.21 168.34000000000003 450.96999999999997 173.30000000000004 447.96 174.86000000000004 C 438.59 179.70000000000005 428.60999999999996 183.42000000000004 418.75 187.27000000000004 C 364.2 208.55000000000004 309.71 229.98000000000005 254.98 250.77000000000004 C 244.04999999999998 254.93000000000004 239.04999999999998 260.89000000000004 239.41 272.76000000000005 C 240.03 293.25000000000006 239.57999999999998 313.77000000000004 239.57999999999998 333.53000000000003 Z" stroke-linecap="round" />
      </g>
      <g transform="matrix(0.0399 0 0 0.0399 112.7063 -0.8348)">
        <path style="stroke: none; stroke-width: 0; stroke-dasharray: none; stroke-linecap: butt; stroke-dashoffset: 0; stroke-linejoin: miter; stroke-miterlimit: 4; is-custom-font: none; font-file-url: none; fill: rgb(78, 3, 252); fill-rule: nonzero; opacity: 1;" transform=" translate(-823.3862, -483.2682)" d="M 835.64 434.65 C 848.62 415.60999999999996 866.47 409.17999999999995 887.91 410.22999999999996 C 893.25 410.48999999999995 895.4599999999999 411.96 896.1899999999999 417.53999999999996 C 902.3599999999999 464.71 895.5999999999999 538.22 880.3399999999999 582.9399999999999 C 858.3 567.3599999999999 836.66 551.8299999999999 814.77 536.65 C 793.04 521.5699999999999 771.0699999999999 506.84 748.31 491.34999999999997 C 757.15 480.71 765.43 470.72999999999996 773.7299999999999 460.77 C 788.2799999999999 443.31 802.4399999999999 425.49 817.5199999999999 408.5 C 835.1399999999999 388.66 857.7999999999998 381.4 884.0599999999998 384.16 C 897.4899999999998 385.57000000000005 891.2799999999999 395.97 894.1399999999999 403.59000000000003 C 866.8999999999999 398.90000000000003 843.6199999999999 402.88000000000005 827.5799999999999 427.72 C 830.29 430.05 832.7499999999999 432.15000000000003 835.6399999999999 434.64000000000004 Z" stroke-linecap="round" />
      </g>
      <g transform="matrix(0.0399 0 0 0.0399 100.1463 16.3462)">
        <path style="stroke: none; stroke-width: 0; stroke-dasharray: none; stroke-linecap: butt; stroke-dashoffset: 0; stroke-linejoin: miter; stroke-miterlimit: 4; is-custom-font: none; font-file-url: none; fill: rgb(78, 3, 252); fill-rule: nonzero; opacity: 1;" transform=" translate(-508.765, -913.65)" d="M 469.1 821.04 C 511.46000000000004 851.17 553.76 881.27 597.77 912.5799999999999 C 537.9499999999999 944.06 479.71 974.7099999999999 419.76 1006.26 C 436.53999999999996 943.25 452.82 882.15 469.1 821.04 Z" stroke-linecap="round" />
      </g>
      <g transform="matrix(0.0399 0 0 0.0399 102.5391 8.9524)">
        <path style="stroke: none; stroke-width: 0; stroke-dasharray: none; stroke-linecap: butt; stroke-dashoffset: 0; stroke-linejoin: miter; stroke-miterlimit: 4; is-custom-font: none; font-file-url: none; fill: rgb(78, 3, 252); fill-rule: nonzero; opacity: 1;" transform=" translate(-568.695, -728.425)" d="M 639.52 654.32 C 598.88 703.57 558.24 752.8100000000001 517.21 802.5300000000001 C 510.6 797.45 504.29 792.6000000000001 497.87000000000006 787.6700000000001 C 532.83 729.8600000000001 585.8700000000001 691.6300000000001 639.5200000000001 654.33 Z" stroke-linecap="round" />
      </g>
      <g transform="matrix(0.0798 0 0 0.0798 81.3312 -19.203)" style="">
        <text xml:space="preserve" font-family="Times New Roman" font-size="16" font-style="normal" font-weight="normal" style="stroke: none; stroke-width: 1; stroke-dasharray: none; stroke-linecap: butt; stroke-dashoffset: 0; stroke-linejoin: miter; stroke-miterlimit: 4; is-custom-font: none; font-file-url: none; fill: rgb(233,27,27); fill-rule: nonzero; opacity: 1; white-space: pre;">
          <tspan x="-39.1055" y="5.0262">I love SVG!</tspan>
        </text>
      </g>
    </g>
  </g>
  <g transform="matrix(1 0 0 1 662.5284 429.0772)" style="" id="383644">
    <text xml:space="preserve" font-family="Lato" font-size="156" font-style="normal" font-weight="bold" style="stroke: none; stroke-width: 1; stroke-dasharray: none; stroke-linecap: butt; stroke-dashoffset: 0; stroke-linejoin: miter; stroke-miterlimit: 4; is-custom-font: none; font-file-url: none; fill: rgb(78, 3, 252); fill-rule: nonzero; opacity: 1; white-space: pre;">
      <tspan x="-278.3832" y="49.0058">Learnify</tspan>
    </text>
  </g>
</svg>