<?xml version="1.0" encoding="UTF-8"?>
<svg version="1.1" xmlns="http://www.w3.org/2000/svg" width="1000" height="320">
<path d="M0 0 C330 0 660 0 1000 0 C1000 105.6 1000 211.2 1000 320 C670 320 340 320 0 320 C0 214.4 0 108.8 0 0 Z " fill="#FEFEFE" transform="translate(0,0)"/>
<path d="M0 0 C1.53873848 0.76640198 3.07202932 1.54380922 4.60058594 2.33032227 C5.4334613 2.74911148 6.26633667 3.1679007 7.12445068 3.59938049 C9.78278954 4.93916827 12.43378232 6.29283739 15.08496094 7.64672852 C16.81889033 8.52196083 18.5532622 9.39631713 20.28808594 10.26977539 C29.62001052 14.98089862 38.8905415 19.80120802 48.13053894 24.68980408 C56.12793989 28.91180925 64.22600565 32.9171717 72.34472656 36.90063477 C73.96604492 37.70307617 73.96604492 37.70307617 75.62011719 38.52172852 C76.57797119 38.99223633 77.5358252 39.46274414 78.52270508 39.94750977 C80.83496094 41.20922852 80.83496094 41.20922852 82.83496094 43.20922852 C82.83496094 44.19922852 82.83496094 45.18922852 82.83496094 46.20922852 C78.16239828 48.48523747 73.48909956 50.7597264 68.81518555 53.03295898 C67.23361454 53.8024237 65.65222679 54.57226524 64.07104492 55.3425293 C62.53507929 56.0907074 60.99873133 56.83810111 59.46200562 57.5847168 C57.91735614 58.33644689 56.37424699 59.09135003 54.83267212 59.84936523 C50.92182744 61.76195649 46.99978169 63.58656152 42.98681641 65.27563477 C42.20974838 65.61208008 41.43268036 65.94852539 40.63206482 66.29516602 C39.16427892 66.92667974 37.68684386 67.5364107 36.19911194 68.11938477 C33.26974913 69.39777215 31.33940605 70.24480409 29.82264709 73.1446228 C29.05238432 75.25827472 29.05238432 75.25827472 28.55578613 77.34359741 C27.09501887 81.12433768 23.288819 82.50022843 19.83496094 84.20922852 C18.85382324 84.71164063 17.87268555 85.21405273 16.86181641 85.73168945 C13.52200646 87.40284905 10.15402303 88.99941963 6.77246094 90.58422852 C5.62712891 91.14239258 4.48179687 91.70055664 3.30175781 92.27563477 C-7.22462615 97.20702343 -7.22462615 97.20702343 -13.16503906 95.20922852 C-16.22753906 93.90454102 -16.22753906 93.90454102 -19.16503906 92.33422852 C-22.29564942 90.69733336 -25.34153913 89.1354194 -28.60253906 87.77172852 C-44.2577896 80.90539056 -44.2577896 80.90539056 -46.42285156 76.85766602 C-46.82250837 75.3045693 -47.18093698 73.74003651 -47.48925781 72.16625977 C-48.00044078 70.07961963 -48.00044078 70.07961963 -49.87207031 68.97094727 C-52.03825414 68.02363227 -52.03825414 68.02363227 -55.16503906 67.20922852 C-52.43105388 63.82080807 -48.69496066 62.47102475 -44.79394531 60.81860352 C-44.07520737 60.50973206 -43.35646942 60.2008606 -42.61595154 59.88262939 C-41.09867229 59.23352091 -39.57975194 58.58823687 -38.05932617 57.9465332 C-35.7336369 56.96181041 -33.4171452 55.95739718 -31.10058594 54.95141602 C-29.62388993 54.3225951 -28.1466923 53.69495062 -26.66894531 53.06860352 C-25.9771669 52.76662048 -25.28538849 52.46463745 -24.57264709 52.15350342 C-19.7448781 50.14521129 -19.7448781 50.14521129 -16.82104492 50.46801758 C-15.58900361 51.01946641 -14.37235728 51.60556941 -13.16503906 52.20922852 C-7.87199651 52.55631327 -4.43145492 52.72274746 -0.16503906 49.20922852 C2.18059278 46.19341615 2.19082705 42.99453108 2.09277344 39.24047852 C1.69557571 36.11104188 0.5260972 33.83988492 -1.16503906 31.20922852 C-5.18300306 28.53058585 -8.4425429 28.40132353 -13.16503906 29.20922852 C-16.29718138 31.57573604 -17.89378281 33.71275813 -19.76879883 37.14453125 C-22.9165139 41.17033536 -26.0096775 42.33244161 -30.69238281 44.11938477 C-31.93128014 44.62156776 -31.93128014 44.62156776 -33.19520569 45.13389587 C-35.82422996 46.19771845 -38.46206103 47.23669583 -41.10253906 48.27172852 C-43.73847793 49.31236391 -46.37165907 50.35850361 -48.99916077 51.42027283 C-50.63014145 52.07873354 -52.26609439 52.7250519 -53.90745544 53.35719299 C-57.72722503 54.89321645 -59.95980345 55.99874128 -62.89379883 59.0078125 C-65.16503906 61.20922852 -65.16503906 61.20922852 -67.53686523 61.21923828 C-70.82859476 59.95422342 -74.03537795 58.56799737 -77.21582031 57.04907227 C-77.87462692 56.73974258 -78.53343353 56.4304129 -79.21220398 56.11170959 C-81.30311719 55.12852346 -83.39033454 54.13775969 -85.47753906 53.14672852 C-86.89982739 52.47630211 -88.32235107 51.80637476 -89.74511719 51.13696289 C-93.22117585 49.50014999 -96.69394152 47.85653441 -100.16503906 46.20922852 C-99.85180664 44.33081055 -99.85180664 44.33081055 -99.16503906 42.20922852 C-96.74293326 40.63248513 -94.43357734 39.35610804 -91.85253906 38.08422852 C-91.04365234 37.67172852 -90.23476562 37.25922852 -89.40136719 36.83422852 C-86.33077258 35.27581921 -83.24831189 33.74240513 -80.16503906 32.20922852 C-78.05418748 31.15441531 -75.94394095 30.09839686 -73.83366394 29.04243469 C-68.35455067 26.30083766 -62.87418524 23.56178953 -57.38989258 20.83056641 C-49.31407906 16.80609289 -41.26009493 12.75317446 -33.29003906 8.52172852 C-32.5678418 8.14040771 -31.84564453 7.75908691 -31.1015625 7.36621094 C-28.44705749 5.96222958 -25.79554739 4.55476306 -23.16210938 3.11157227 C-21.25422271 2.06630888 -19.33597379 1.04275433 -17.41503906 0.02172852 C-16.36832031 -0.54932617 -15.32160156 -1.12038086 -14.24316406 -1.70874023 C-9.11218543 -3.51239643 -4.80064658 -2.23101459 0 0 Z " fill="#4E03FC" transform="translate(239.1650390625,32.790771484375)"/>
<path d="M0 0 C2.79208955 2.79208955 2.42609471 5.44217731 2.4375 9.1875 C2.42700351 24.62784226 -4.18365002 38.5107787 -14.60546875 49.76953125 C-32.87194134 66.78446738 -55.1951954 70.63964147 -78.92919922 74.42456055 C-100.12737238 77.82915696 -122.45923917 82.05376876 -136.3828125 100.0859375 C-143.22660658 109.04198505 -143.22660658 109.04198505 -146 119.625 C-144.6488933 122.83387841 -142.5665687 124.69666911 -140 127 C-139.38125 125.948125 -139.38125 125.948125 -138.75 124.875 C-128.99980992 108.85683057 -116.07749798 100.71407639 -98 96 C-90.7196095 94.33255572 -83.37610904 93.19976823 -75.9921875 92.10546875 C-51.30965511 88.41049009 -27.1937194 82.83374328 -11.125 62 C-7.69485181 57.19656088 -4.65022155 52.27380771 -2 47 C-1 49 -1 49 -1.56640625 51.3984375 C-9.26164285 74.39361512 -25.29119949 97.66389983 -46.37890625 110.38671875 C-58.06399361 115.59269618 -70.32899267 117.41773478 -82.85522461 119.35449219 C-99.5821752 121.96556327 -115.44068396 125.56620028 -127 139 C-127 139.66 -127 140.32 -127 141 C-113.99986135 150.33918006 -99.71619536 155.75586984 -84.01171875 158.359375 C-81 159 -81 159 -78 161 C-78.66 162.65 -79.32 164.3 -80 166 C-103.02491241 166.61128086 -124.2924822 153.5771006 -140.68579102 138.35913086 C-160.68344987 119.02551513 -174.55882152 90.51198776 -175.203125 62.60546875 C-175.4401609 39.92342671 -175.4401609 39.92342671 -173.6875 29.5 C-173.56987305 28.79641357 -173.45224609 28.09282715 -173.33105469 27.36791992 C-172.55605256 23.38637127 -171.29321465 20.34025663 -169 17 C-167.68 17.33 -166.36 17.66 -165 18 C-165.11795524 19.45892004 -165.24491151 20.91711177 -165.375 22.375 C-165.44460937 23.18710938 -165.51421875 23.99921875 -165.5859375 24.8359375 C-165.92921019 27.45905897 -166.42954618 29.90371336 -167.015625 32.4765625 C-172.35516047 58.67685847 -166.62278948 87.20572725 -153 110 C-152.67 110 -152.34 110 -152 110 C-151.90203125 109.17757812 -151.8040625 108.35515625 -151.703125 107.5078125 C-149.51239341 91.15286807 -142.5359194 76.93222194 -129.79296875 66.12890625 C-114.6858066 54.87995798 -98.4065634 51.47012458 -80.15234375 48.859375 C-43.07829126 43.93150452 -43.07829126 43.93150452 -13 23 C-11.20679176 19.83354526 -11.20679176 19.83354526 -10 17 C-9.34 17 -8.68 17 -8 17 C-7.6596875 15.824375 -7.6596875 15.824375 -7.3125 14.625 C-3.16216216 3.16216216 -3.16216216 3.16216216 0 0 Z " fill="#4F05FC" transform="translate(300,97)"/>
<path d="M0 0 C4.36652661 3.41728169 6.022512 6.65654998 7 12 C7.30529895 15.76521565 7.34794538 19.52057475 7.37890625 23.296875 C7.39590073 24.36746155 7.4128952 25.4380481 7.43040466 26.54107666 C7.48331235 29.94399199 7.52374631 33.34689639 7.5625 36.75 C7.6064597 40.167326 7.65314288 43.58455916 7.70530701 47.00177002 C7.73721359 49.12405382 7.76411932 51.24641989 7.78553772 53.36883545 C7.79902756 54.32703186 7.8125174 55.28522827 7.82641602 56.27246094 C7.83592789 57.11516541 7.84543976 57.95786987 7.85523987 58.82611084 C7.9201909 61.18139832 7.9201909 61.18139832 9 64 C12.00847418 65.22520264 12.00847418 65.22520264 15 66 C15 67.65 15 69.3 15 71 C2.79 71 -9.42 71 -22 71 C-22 69.35 -22 67.7 -22 66 C-19.03 65.505 -19.03 65.505 -16 65 C-15.89864538 57.66776322 -15.82855351 50.33570683 -15.78027344 43.00292969 C-15.76014836 40.50806935 -15.73284548 38.01325622 -15.69824219 35.51855469 C-15.64976543 31.93412632 -15.6270398 28.35032115 -15.609375 24.765625 C-15.58872986 23.64883362 -15.56808472 22.53204224 -15.54681396 21.38140869 C-15.54651184 20.34063171 -15.54620972 19.29985474 -15.54589844 18.22753906 C-15.53257477 16.85520111 -15.53257477 16.85520111 -15.51898193 15.45513916 C-16.15660513 12.20067994 -17.41905569 11.02028055 -20 9 C-23.39064503 8.43489249 -25.73491416 8.23473602 -28.75 10.05859375 C-30.94221288 11.83449697 -32.72878607 13.45757214 -34 16 C-34.11975396 17.4894903 -34.17975851 18.9840118 -34.20874023 20.47802734 C-34.22803085 21.40594086 -34.24732147 22.33385437 -34.26719666 23.28988647 C-34.32482779 27.53045854 -34.37419462 31.77085998 -34.4050293 36.01171875 C-34.42664337 38.2504821 -34.46078605 40.4891602 -34.50756836 42.72753906 C-34.57435905 45.95155653 -34.60199228 49.17382708 -34.62109375 52.3984375 C-34.64892441 53.39958588 -34.67675507 54.40073425 -34.70542908 55.43222046 C-34.69753081 58.09168566 -34.65087589 60.42055827 -34 63 C-31.09257253 65.45524817 -31.09257253 65.45524817 -28 67 C-28 68.32 -28 69.64 -28 71 C-40.54 71 -53.08 71 -66 71 C-66 69.35 -66 67.7 -66 66 C-65.030625 65.71125 -64.06125 65.4225 -63.0625 65.125 C-59.89335797 64.35785318 -59.89335797 64.35785318 -59 62 C-58.9090785 60.1820546 -58.88246533 58.36074055 -58.88647461 56.54052734 C-58.88655014 55.39949554 -58.88662567 54.25846375 -58.88670349 53.08285522 C-58.89186478 51.84637238 -58.89702606 50.60988953 -58.90234375 49.3359375 C-58.90446617 47.4424205 -58.90446617 47.4424205 -58.90663147 45.51065063 C-58.91128922 42.15361701 -58.92027592 38.796651 -58.93133545 35.43963623 C-58.9415623 32.01445094 -58.94613182 28.58925866 -58.95117188 25.1640625 C-58.96221762 18.44268957 -58.97896806 11.72134869 -59 5 C-61.31 4.34 -63.62 3.68 -66 3 C-66 1.68 -66 0.36 -66 -1 C-56.1 -1 -46.2 -1 -36 -1 C-35.67 1.64 -35.34 4.28 -35 7 C-34.5153125 6.52949219 -34.030625 6.05898437 -33.53125 5.57421875 C-24.12925448 -3.15878862 -11.90771583 -6.73868464 0 0 Z " fill="#5005FC" transform="translate(773,129)"/>
<path d="M0 0 C18.15 0 36.3 0 55 0 C55 1.65 55 3.3 55 5 C53.75283203 5.12955078 53.75283203 5.12955078 52.48046875 5.26171875 C51.39378906 5.40222656 50.30710937 5.54273437 49.1875 5.6875 C48.10855469 5.81511719 47.02960938 5.94273438 45.91796875 6.07421875 C42.90221629 6.73647609 42.90221629 6.73647609 41.33990479 9.04916382 C39.63987505 12.79309347 39.59426354 16.10900309 39.64355469 20.13916016 C39.64151031 20.94461777 39.63946594 21.75007538 39.63735962 22.5799408 C39.6343598 25.23321489 39.65280272 27.88586262 39.671875 30.5390625 C39.67493381 32.38560838 39.676809 34.23215657 39.67755127 36.07870483 C39.68214912 39.9438361 39.6965568 43.80875842 39.71875 47.67382812 C39.74707148 52.63161513 39.75796616 57.58923794 39.7624321 62.54709816 C39.76658541 66.35773362 39.77640153 70.16833582 39.78830719 73.97895432 C39.79400887 75.80742502 39.79876792 77.63589891 39.80257416 79.46437454 C39.80943736 82.01618335 39.82306915 84.56786173 39.83886719 87.11962891 C39.83998505 87.87709915 39.84110291 88.6345694 39.84225464 89.41499329 C39.8679558 92.54439349 40.00276013 95.0082804 41 98 C47.30385082 101.15192541 59.22784363 99.95182577 65.9375 98.05859375 C79.89845247 92.90402912 85.87690216 82.98096741 92 70 C93.65 70 95.3 70 97 70 C95.6565425 82.09111748 93.21521146 94.03785813 91 106 C60.97 106 30.94 106 0 106 C0 104.35 0 102.7 0 101 C1.2375 100.9175 2.475 100.835 3.75 100.75 C6.89064211 100.36645256 7.87282539 100.10108751 10.4375 98.0625 C13.36146249 94.20286951 13.1480794 90.98938225 13.14526367 86.30908203 C13.14862228 85.51542236 13.1519809 84.7217627 13.15544128 83.90405273 C13.1649651 81.27195687 13.16689517 78.63992454 13.16796875 76.0078125 C13.17118056 74.18179294 13.17454457 72.35577365 13.17805481 70.52975464 C13.18404981 66.69805301 13.18589435 62.86637396 13.18530273 59.03466797 C13.18520114 54.12282511 13.19884879 49.21112689 13.21607494 44.29931831 C13.22718992 40.52639093 13.22922209 36.75349857 13.22869301 32.98055649 C13.22987406 31.16965105 13.23430283 29.35874473 13.24202538 27.54785538 C13.25181423 25.01503609 13.24895152 22.4825313 13.24291992 19.94970703 C13.25134918 18.82585098 13.25134918 18.82585098 13.25994873 17.67929077 C13.23761195 13.99117535 13.18599872 11.06378285 11 8 C7.47515924 6.13966738 3.92410537 5.54754959 0 5 C0 3.35 0 1.7 0 0 Z " fill="#4F04FC" transform="translate(387,94)"/>
<path d="M0 0 C4.7072733 4.00118231 8.04605813 8.23624786 8.7784729 14.51057434 C8.79179657 15.33442123 8.80512024 16.15826813 8.81884766 17.00708008 C8.83871735 17.94767776 8.85858704 18.88827545 8.87905884 19.8573761 C8.89061005 20.8596373 8.90216125 21.8618985 8.9140625 22.89453125 C8.93342865 23.93067062 8.9527948 24.96681 8.9727478 26.03434753 C9.03240357 29.33531529 9.07887331 32.63631819 9.125 35.9375 C9.16319263 38.17905145 9.20224511 40.42058842 9.2421875 42.66210938 C9.33809358 48.14961086 9.42318199 53.63719991 9.5 59.125 C10.82 59.125 12.14 59.125 13.5 59.125 C15.75 60.125 15.75 60.125 17.5 61.125 C16.10802671 64.50756721 14.6974504 65.96188682 11.5625 67.8125 C10.87285156 68.22886719 10.18320312 68.64523438 9.47265625 69.07421875 C4.89432174 71.51297515 0.56744401 71.61790838 -4.5 71.125 C-8.56662662 69.57228802 -10.07519602 68.76220598 -12.5 65.125 C-12.5 63.805 -12.5 62.485 -12.5 61.125 C-13.44359375 61.83076172 -13.44359375 61.83076172 -14.40625 62.55078125 C-23.97550138 69.51154694 -31.39666563 72.71157941 -43.5 71.125 C-48.63908274 69.29831182 -52.4798068 66.07332454 -54.87109375 61.140625 C-56.38291398 56.29528811 -56.52130444 51.56524791 -54.546875 46.84765625 C-47.08089847 34.16022145 -30.02328285 28.84433128 -16.5 25.125 C-15.51 25.125 -14.52 25.125 -13.5 25.125 C-13.58730853 22.39435053 -13.69422124 19.6668381 -13.8125 16.9375 C-13.84633789 15.78411133 -13.84633789 15.78411133 -13.88085938 14.60742188 C-14.09763351 10.01575147 -14.55860894 6.8652874 -17.5 3.125 C-20.34838121 1.7008094 -22.82787908 1.95504492 -26 1.9375 C-27.74796875 1.91623047 -27.74796875 1.91623047 -29.53125 1.89453125 C-32.61906718 1.81056286 -32.61906718 1.81056286 -34.5 4.125 C-34.14700993 7.56665321 -33.45418308 9.19372538 -31.5 12.125 C-30.91028947 16.58995113 -31.21619063 18.63720265 -33.5 22.5625 C-36.96788991 25.52465596 -36.96788991 25.52465596 -40.5 25.625 C-43.83150532 25.33639502 -46.62908119 24.92957754 -49.5 23.125 C-52.42974022 18.78090244 -53.21441342 15.30449731 -52.5 10.125 C-50.01621284 3.35700852 -45.44273109 0.46205381 -39.21875 -2.74609375 C-27.5015644 -7.61141938 -11.02223408 -5.90476826 0 0 Z " fill="#5007FC" transform="translate(616.5,130.875)"/>
<path d="M0 0 C1.50098778 0.88048139 2.98406266 1.79306129 4.4375 2.75 C5.365625 3.348125 6.29375 3.94625 7.25 4.5625 C15.44142715 12.75392715 17.4375 22.45634491 17.4375 33.75 C4.2375 33.75 -8.9625 33.75 -22.5625 33.75 C-19.81485507 48.01383849 -19.81485507 48.01383849 -11.875 59.1875 C-6.92079686 61.52438828 -2.60514345 61.76966725 2.6171875 60.01953125 C6.16390783 58.38000959 8.42372244 56.76409069 11.1875 53.9375 C11.93 53.215625 12.6725 52.49375 13.4375 51.75 C15.75 51.9375 15.75 51.9375 17.4375 52.75 C16.66333316 59.41974506 12.2317326 63.38574341 7.4375 67.75 C-1.31508211 73.45146043 -10.23276959 74.79742022 -20.5625 73.75 C-28.33693476 71.32185021 -35.81274379 66.18244285 -40.1328125 59.21875 C-44.04800986 51.61208083 -44.7674943 45.59732223 -44.8125 37.125 C-44.833125 36.17753906 -44.85375 35.23007813 -44.875 34.25390625 C-44.9316583 23.89960237 -42.54485758 14.62155134 -35.5625 6.75 C-25.49608893 -1.8269096 -12.60265562 -6.14072425 0 0 Z " fill="#5108FC" transform="translate(536.5625,128.25)"/>
<path d="M0 0 C3.10283673 2.25660853 4.7246751 4.5706049 5.46875 8.43359375 C5.73055756 12.83850593 5.41525567 15.3302328 3.0625 19.125 C-1.05300183 21.644695 -4.29314699 22.05542455 -9 21 C-12.0625 18.875 -12.0625 18.875 -14 16 C-14.92064897 10.82134953 -12.9537851 6.72164733 -11 2 C-12.27875 2.103125 -13.5575 2.20625 -14.875 2.3125 C-15.59429688 2.37050781 -16.31359375 2.42851563 -17.0546875 2.48828125 C-19.39519216 2.87393036 -19.39519216 2.87393036 -21 6 C-21.36887189 8.90644244 -21.36887189 8.90644244 -21.4140625 12.19921875 C-21.45273437 13.40771484 -21.49140625 14.61621094 -21.53125 15.86132812 C-21.57765625 17.7552832 -21.57765625 17.7552832 -21.625 19.6875 C-21.66367187 20.96173828 -21.70234375 22.23597656 -21.7421875 23.54882812 C-21.83657398 26.69897694 -21.91938035 29.8494688 -22 33 C-17.71 33 -13.42 33 -9 33 C-9 35.31 -9 37.62 -9 40 C-13.29 40 -17.58 40 -22 40 C-21.88191533 47.77802075 -21.7576785 55.55590937 -21.62768555 63.33374023 C-21.58431696 65.98084832 -21.54264332 68.62798472 -21.50268555 71.27514648 C-21.44502977 75.075445 -21.38132156 78.87560068 -21.31640625 82.67578125 C-21.29969376 83.86335526 -21.28298126 85.05092926 -21.26576233 86.27449036 C-21.24581711 87.37540512 -21.22587189 88.47631989 -21.20532227 89.6105957 C-21.18200584 91.06620659 -21.18200584 91.06620659 -21.15821838 92.55122375 C-21.09534871 95.13795675 -21.09534871 95.13795675 -20 98 C-16.7 98.33 -13.4 98.66 -10 99 C-10 100.65 -10 102.3 -10 104 C-24.19 104 -38.38 104 -53 104 C-53 102.35 -53 100.7 -53 99 C-51.576875 98.5978125 -51.576875 98.5978125 -50.125 98.1875 C-46.74732727 97.25013412 -46.74732727 97.25013412 -45 94 C-44.6719696 91.51562053 -44.6719696 91.51562053 -44.68115234 88.70239258 C-44.66128265 87.62149857 -44.64141296 86.54060455 -44.62094116 85.42695618 C-44.60938995 84.26125595 -44.59783875 83.09555573 -44.5859375 81.89453125 C-44.55688828 80.10301888 -44.55688828 80.10301888 -44.5272522 78.27531433 C-44.46739384 74.45444924 -44.42104546 70.63355413 -44.375 66.8125 C-44.33682603 64.22459612 -44.29777465 61.63670501 -44.2578125 59.04882812 C-44.16168709 52.69933209 -44.07665782 46.34975928 -44 40 C-46.97 40 -49.94 40 -53 40 C-53 37.69 -53 35.38 -53 33 C-50.03 33 -47.06 33 -44 33 C-44.04640625 31.88882813 -44.0928125 30.77765625 -44.140625 29.6328125 C-44.68402291 11.33429941 -44.68402291 11.33429941 -38.19921875 3.94921875 C-27.78186251 -5.82084545 -12.45743553 -7.66611417 0 0 Z " fill="#4F05FC" transform="translate(890,96)"/>
<path d="M0 0 C13.2 0 26.4 0 40 0 C40 1.32 40 2.64 40 4 C37.69 4.66 35.38 5.32 33 6 C32.68318088 10.93049757 33.74310411 14.66572163 35.625 19.1484375 C35.89135254 19.80582916 36.15770508 20.46322083 36.43212891 21.14053345 C37.27838623 23.22280611 38.13890117 25.29882715 39 27.375 C39.57907963 28.79257916 40.15721468 30.21054457 40.734375 31.62890625 C42.14534923 35.09047364 43.56916452 38.54658724 45 42 C48.00313628 34.94641836 50.88203534 27.89715548 53.3125 20.625 C53.57611328 19.87089844 53.83972656 19.11679688 54.11132812 18.33984375 C55.54121975 14.08359492 56.31076337 10.55304468 56 6 C53.69 5.34 51.38 4.68 49 4 C49 2.68 49 1.36 49 0 C56.92 0 64.84 0 73 0 C73 1.32 73 2.64 73 4 C72.06752441 4.37922607 71.13504883 4.75845215 70.17431641 5.14916992 C66.4049242 7.34696736 65.76845825 8.60106044 64.2109375 12.61328125 C63.97337738 13.21110916 63.73581726 13.80893707 63.49105835 14.42488098 C62.63504293 16.60752798 61.81677105 18.80236948 61 21 C60.29206589 22.87291197 59.58405284 24.74579411 58.87597656 26.61865234 C56.00938817 34.24698032 53.20077844 41.89652928 50.39160156 49.54614258 C46.31663043 60.62912393 42.23598403 71.7044563 37.7109375 82.61328125 C37.40838043 83.35313766 37.10582336 84.09299408 36.7940979 84.85527039 C33.84664445 91.82575989 30.53828021 98.80879474 24 103 C17.92997917 104.93196362 11.2307134 105.07552253 5.5 102.3125 C1.73623774 98.83101991 -0.13250751 96.1448948 -0.5 91 C-0.38126504 87.5105114 0.01486065 86.98161972 2.375 84.0625 C6.45267175 80.85861505 8.78779014 80.5582873 14 81 C16.875 82.5 16.875 82.5 19 85 C19.70435841 87.73395412 19.85763535 90.15270693 20 93 C21.98 93 23.96 93 26 93 C26.27457031 92.3090625 26.54914062 91.618125 26.83203125 90.90625 C27.64677803 88.87892023 28.47890962 86.8585281 29.32421875 84.84375 C29.99904297 83.18859375 29.99904297 83.18859375 30.6875 81.5 C31.14511719 80.3965625 31.60273437 79.293125 32.07421875 78.15625 C33.72400499 72.53166231 31.31054072 67.91053568 29.19140625 62.6640625 C28.90896561 61.95584854 28.62652496 61.24763458 28.33552551 60.51795959 C27.41622141 58.21824894 26.48994907 55.92143689 25.5625 53.625 C25.24831116 52.84387848 24.93412231 52.06275696 24.6104126 51.25796509 C20.62791325 41.36060766 16.59493895 31.48638282 12.375 21.6875 C11.98642822 20.77758301 11.59785645 19.86766602 11.19750977 18.93017578 C7.84295423 10.71164627 7.84295423 10.71164627 1.75 4.625 C1.1725 4.41875 0.595 4.2125 0 4 C0 2.68 0 1.36 0 0 Z " fill="#5107FC" transform="translate(889,128)"/>
<path d="M0 0 C3.74262941 3.45473484 4.29900335 5.02331537 4.875 10.125 C4.77647037 14.91712268 2.79572174 16.97173592 -0.5625 20.25 C-3.76504147 21.85127074 -6.01564564 21.65701607 -9.5625 21.25 C-12.22979626 19.57001689 -14.51585926 17.65122591 -16.5625 15.25 C-16.5625 14.59 -16.5625 13.93 -16.5625 13.25 C-19.39401973 12.83190799 -19.39401973 12.83190799 -22.5625 13.25 C-25.98922656 16.76934079 -27.67394752 19.41036987 -27.73950195 24.26904297 C-27.75233719 25.09685272 -27.76517242 25.92466248 -27.77839661 26.77755737 C-27.78578354 27.67338531 -27.79317047 28.56921326 -27.80078125 29.4921875 C-27.808853 30.4121048 -27.81692474 31.33202209 -27.82524109 32.27981567 C-27.83908357 34.22835402 -27.84980499 36.17691663 -27.85766602 38.12548828 C-27.87489171 41.10626062 -27.91877737 44.08592756 -27.96289062 47.06640625 C-27.97301635 48.95832517 -27.98153283 50.85025352 -27.98828125 52.7421875 C-28.00578934 53.63396698 -28.02329742 54.52574646 -28.04133606 55.44454956 C-28.05135598 60.45747414 -28.05135598 60.45747414 -25.73901367 64.79736328 C-23.03563789 66.60163539 -20.77209224 66.95821889 -17.5625 67.25 C-17.5625 68.9 -17.5625 70.55 -17.5625 72.25 C-31.4225 72.25 -45.2825 72.25 -59.5625 72.25 C-59.5625 70.6 -59.5625 68.95 -59.5625 67.25 C-58.593125 66.96125 -57.62375 66.6725 -56.625 66.375 C-53.45585797 65.60785318 -53.45585797 65.60785318 -52.5625 63.25 C-52.46673258 61.50404559 -52.4345447 59.75443769 -52.43310547 58.00585938 C-52.42837723 56.36405701 -52.42837723 56.36405701 -52.42355347 54.68908691 C-52.42658981 52.90939514 -52.42658981 52.90939514 -52.4296875 51.09375 C-52.42873077 49.88054077 -52.42777405 48.66733154 -52.42678833 47.4173584 C-52.42610683 44.84838815 -52.42795903 42.27941618 -52.43212891 39.71044922 C-52.43747754 35.76656241 -52.43218286 31.82278949 -52.42578125 27.87890625 C-52.42644204 25.38802058 -52.42772321 22.89713498 -52.4296875 20.40625 C-52.42766327 19.21978882 -52.42563904 18.03332764 -52.42355347 16.81091309 C-52.42670563 15.71637817 -52.42985779 14.62184326 -52.43310547 13.49414062 C-52.43390106 12.52754517 -52.43469666 11.56094971 -52.43551636 10.56506348 C-52.41009707 8.22350942 -52.41009707 8.22350942 -53.5625 6.25 C-55.54138961 5.52306096 -57.54204558 4.85183749 -59.5625 4.25 C-59.5625 2.93 -59.5625 1.61 -59.5625 0.25 C-49.6625 0.25 -39.7625 0.25 -29.5625 0.25 C-29.2325 3.55 -28.9025 6.85 -28.5625 10.25 C-27.551875 9.0125 -26.54125 7.775 -25.5 6.5 C-18.49463617 -1.38627784 -10.20250055 -5.01175466 0 0 Z " fill="#5006FC" transform="translate(697.5625,127.75)"/>
<path d="M0 0 C9.9 0 19.8 0 30 0 C30.04898438 4.42921875 30.09796875 8.8584375 30.1484375 13.421875 C30.19298006 16.95532895 30.23947546 20.4887452 30.28729248 24.02215576 C30.33721917 27.75106174 30.38371075 31.47993788 30.421875 35.20898438 C30.45877163 38.80120413 30.50514317 42.39318843 30.55806351 45.9852066 C30.57658426 47.35507321 30.59170081 48.72499024 30.60334396 50.09493256 C30.62024532 52.01488656 30.65041426 53.93470986 30.68115234 55.85449219 C30.69447601 56.94703308 30.70779968 58.03957397 30.7215271 59.16522217 C30.99882535 61.98804235 31.45261528 63.64457383 33 66 C35.0335948 67.26804566 35.0335948 67.26804566 37 68 C37 69.32 37 70.64 37 72 C24.79 72 12.58 72 0 72 C0 70.35 0 68.7 0 67 C0.78375 66.7525 1.5675 66.505 2.375 66.25 C5.45851733 64.78165841 5.81684526 64.1144127 7 61 C7.30732434 58.51828478 7.30732434 58.51828478 7.2746582 55.82006836 C7.28419022 54.78897446 7.29372223 53.75788055 7.30354309 52.69554138 C7.30217598 51.03447105 7.30217598 51.03447105 7.30078125 49.33984375 C7.30720894 47.62771446 7.30720894 47.62771446 7.31376648 45.8809967 C7.31950703 43.46941796 7.32001207 41.05782191 7.31567383 38.64624023 C7.31250908 34.94810669 7.33599406 31.25076929 7.36132812 27.55273438 C7.36360058 25.21093851 7.36430487 22.86914049 7.36328125 20.52734375 C7.372491 19.4179393 7.38170074 18.30853485 7.39118958 17.16551208 C7.38496078 16.13757034 7.37873199 15.1096286 7.37231445 14.05053711 C7.37294388 13.14548935 7.3735733 12.24044159 7.3742218 11.30796814 C6.92457293 8.53481259 6.18538839 7.70469761 4 6 C1.90010348 4.82425289 1.90010348 4.82425289 0 4 C0 2.68 0 1.36 0 0 Z " fill="#4E03FC" transform="translate(794,128)"/>
<path d="M0 0 C3.5328991 2.32827161 7.00404137 4.69272104 10.375 7.25 C11.06335938 7.77078125 11.75171875 8.2915625 12.4609375 8.828125 C12.96882813 9.21484375 13.47671875 9.6015625 14 10 C12.66558629 12.82749964 11.16230649 15.29610568 9.3046875 17.80859375 C8.49064453 18.91267578 8.49064453 18.91267578 7.66015625 20.0390625 C7.07105469 20.83054688 6.48195313 21.62203125 5.875 22.4375 C5.25753906 23.27152344 4.64007813 24.10554688 4.00390625 24.96484375 C-1.27087046 32.06835066 -6.63539222 39.10220158 -12.01147461 46.12915039 C-20.5293617 57.2795565 -28.86850329 68.5646113 -37 80 C-42.3788298 77.08646719 -47.16579311 73.73960177 -52 70 C-47.78063546 63.47648527 -43.24808651 57.27149555 -38.5 51.125 C-33.26213644 44.30034352 -28.08052577 37.44260232 -23 30.5 C-15.4756692 20.22492097 -7.74770084 10.10721412 0 0 Z " fill="#4E03FC" transform="translate(302,171)"/>
<path d="M0 0 C3.40212299 1.61382757 6.10324519 3.58603766 9 6 C2.91498168 28.71740174 -14.78866145 49.92085376 -33 64 C-33.969375 64.78503906 -34.93875 65.57007813 -35.9375 66.37890625 C-37.360625 67.49072266 -37.360625 67.49072266 -38.8125 68.625 C-39.66457031 69.29789062 -40.51664062 69.97078125 -41.39453125 70.6640625 C-44.69341605 72.35554466 -46.48344372 71.9343259 -50 71 C-50.33 70.01 -50.66 69.02 -51 68 C-50.05053711 66.20092773 -50.05053711 66.20092773 -48.52734375 64.18359375 C-47.96466797 63.42884766 -47.40199219 62.67410156 -46.82226562 61.89648438 C-46.20029297 61.08501953 -45.57832031 60.27355469 -44.9375 59.4375 C-44.30134766 58.59123047 -43.66519531 57.74496094 -43.00976562 56.87304688 C-38.16671662 50.45541052 -33.22487863 44.11367115 -28.26464844 37.78637695 C-22.1987564 30.02919745 -16.39030033 22.0884592 -10.57470703 14.14306641 C-7.08909522 9.39939192 -3.54540671 4.6990708 0 0 Z " fill="#5108FC" transform="translate(319,185)"/>
<path d="M0 0 C-1.0325212 3.05519321 -1.86921041 3.92631523 -4.72705078 5.53637695 C-5.87157715 6.01550537 -7.01610352 6.49463379 -8.1953125 6.98828125 C-8.81588531 7.25248367 -9.43645813 7.5166861 -10.07583618 7.78889465 C-12.08735922 8.6421878 -14.10600729 9.4770568 -16.125 10.3125 C-17.49963483 10.89357528 -18.87365932 11.47609657 -20.24707031 12.06005859 C-24.15906814 13.72037107 -28.07879697 15.36154587 -32 17 C-35.25463321 18.36444653 -38.50444038 19.73914526 -41.75 21.125 C-42.94109375 21.62257813 -44.1321875 22.12015625 -45.359375 22.6328125 C-48.25873487 23.86393397 -48.25873487 23.86393397 -50 27 C-50.6918269 32.56863951 -51.19991995 38.46711756 -50 44 C-47.7312397 46.76883508 -45.24932459 47.66430926 -42 49 C-38.52411853 53.03650751 -37.86566567 57.78782818 -38 63 C-39.61506195 68.70021865 -41.98336292 71.84137665 -47 75 C-51.47319861 76.29867056 -54.89286884 76.37600681 -59.3125 74.875 C-63.20684715 72.15801362 -65.49528999 69.51413003 -67 65 C-67.3866241 60.19693912 -67.58824837 55.62633372 -65.9375 51.0625 C-63.23776858 48.18859236 -60.54615198 46.74083824 -57 45 C-56.34 45 -55.68 45 -55 45 C-55.0314209 44.35973877 -55.0628418 43.71947754 -55.09521484 43.05981445 C-55.22033061 40.14440587 -55.29809065 37.22956191 -55.375 34.3125 C-55.42527344 33.30509766 -55.47554687 32.29769531 -55.52734375 31.25976562 C-55.55634766 29.79506836 -55.55634766 29.79506836 -55.5859375 28.30078125 C-55.6173584 27.40528564 -55.6487793 26.50979004 -55.68115234 25.5871582 C-54.66837317 21.74041237 -52.23247505 20.03198438 -49 18 C-46.00428109 16.43994338 -42.92994539 15.14044683 -39.8046875 13.86328125 C-38.93482208 13.49776657 -38.06495667 13.13225189 -37.16873169 12.75566101 C-34.40817576 11.59802302 -31.64189701 10.45488761 -28.875 9.3125 C-26.10237054 8.15623507 -23.3309752 6.99705674 -20.55984497 5.83720398 C-18.84036205 5.11877594 -17.11976188 4.40301455 -15.3979187 3.69026184 C-14.6167569 3.36619858 -13.83559509 3.04213531 -13.03076172 2.70825195 C-12.34714569 2.42577103 -11.66352966 2.1432901 -10.959198 1.85224915 C-8.95108858 1.0126264 -8.95108858 1.0126264 -6.91995239 -0.13020325 C-4.32175015 -1.30726779 -2.68771551 -0.74658764 0 0 Z " fill="#530BFC" transform="translate(232,72)"/>
<path d="M0 0 C0.495 2.475 0.495 2.475 1 5 C-0.03060547 5.16435547 -0.03060547 5.16435547 -1.08203125 5.33203125 C-1.98308594 5.49058594 -2.88414062 5.64914063 -3.8125 5.8125 C-4.70582031 5.96332031 -5.59914063 6.11414063 -6.51953125 6.26953125 C-9.23646816 7.06963708 -10.29220958 7.77502384 -12 10 C-12.33 10.99 -12.66 11.98 -13 13 C-12.195625 12.195625 -11.39125 11.39125 -10.5625 10.5625 C-6.73336737 7.31186942 -2.8788744 7.11926137 2 7 C5.29220881 18.87405373 4.5727831 39.8544338 -1 51 C-5.28654703 49.5737348 -8.05466652 47.46525764 -11.4375 44.5 C-17.97309935 38.87154351 -24.92343722 33.92009543 -32 29 C-30.4396104 24.01249705 -27.45640766 20.52708813 -24.1875 16.5625 C-23.66607422 15.91990234 -23.14464844 15.27730469 -22.60742188 14.61523438 C-21.5737165 13.34407359 -20.535295 12.07673184 -19.49194336 10.81347656 C-18.52375273 9.63662825 -17.5655502 8.45146392 -16.61938477 7.25683594 C-12.05175273 1.55355707 -7.32964446 -0.53631545 0 0 Z " fill="#5107FC" transform="translate(334,129)"/>
<path d="M0 0 C6.11964409 3.72278349 11.69699456 8.05733908 17.25 12.5625 C17.93513672 13.11639404 18.62027344 13.67028809 19.32617188 14.2409668 C23.09385671 17.32357626 26.62677669 20.48949435 30 24 C29.351521 24.37697021 28.70304199 24.75394043 28.03491211 25.14233398 C25.0018246 26.90633149 21.96957133 28.6717564 18.9375 30.4375 C17.84743652 31.07187988 16.75737305 31.70625977 15.63427734 32.35986328 C8.80996694 36.33860879 2.00921131 40.35075883 -4.70727539 44.50952148 C-8.78451195 47 -8.78451195 47 -11 47 C-10.405662 41.63118402 -9.51961887 36.45828351 -8.22265625 31.2109375 C-7.96554115 30.15055771 -7.96554115 30.15055771 -7.70323181 29.0687561 C-7.34309439 27.58763765 -6.98081139 26.10703937 -6.61645508 24.62695312 C-6.0624934 22.37497319 -5.51608266 20.12125948 -4.97070312 17.8671875 C-4.6176306 16.41916272 -4.26412959 14.97124234 -3.91015625 13.5234375 C-3.66786034 12.52478165 -3.66786034 12.52478165 -3.42066956 11.50595093 C-2.45558552 7.60092034 -1.32230449 3.79864683 0 0 Z " fill="#5107FC" transform="translate(235,243)"/>
<path d="M0 0 C3.12578143 1.6720747 5.39281175 3.7856235 7 7 C7.43540712 11.26196588 7.47065428 14.91749516 5.75 18.875 C3.36984516 21.76518802 1.38108991 23.72651685 -2.3671875 24.46875 C-6.82426247 24.52428988 -10.0126954 24.53016696 -13.5625 21.625 C-17.3057723 17.59378368 -17.39037018 14.90519941 -17.359375 9.55078125 C-16.78039966 5.44131496 -15.00085071 3.78650423 -12 1 C-8.27533151 -0.86233425 -4.05504687 -0.57130829 0 0 Z " fill="#5006FC" transform="translate(818,92)"/>
<path d="M0 0 C6.05323968 7.16831014 5.09006228 13.99377243 5 23 C-1.6 23 -8.2 23 -15 23 C-15.31993907 14.57493781 -15.46552287 7.04311002 -9.75 0.375 C-5.95290423 -1.52354788 -4.01241301 -1.31315335 0 0 Z " fill="#FAF8FE" transform="translate(529,132)"/>
<path d="M0 0 C0.20439826 3.54080671 0.32797882 7.08009007 0.4375 10.625 C0.49615234 11.62402344 0.55480469 12.62304688 0.61523438 13.65234375 C0.78349465 20.91157274 0.78349465 20.91157274 -1.4597168 24.02783203 C-4.59092622 26.82990038 -6.47098498 27.91033644 -10.6875 28.625 C-14 28 -14 28 -16.4375 26.6875 C-18.98992822 22.29732346 -18.6832859 17.9412359 -18 13 C-15.44230237 7.10617502 -10.44380553 4.07780534 -5 1 C-2 0 -2 0 0 0 Z " fill="#FBF9FE" transform="translate(603,162)"/>
<path d="M0 0 C0 3.58752615 -0.48229202 3.82606843 -2.875 6.3125 C-6.16932198 9.93226911 -9.06279052 13.75115139 -11.875 17.75 C-16.45981237 24.26456307 -21.18680238 30.65215966 -26 37 C-27.65 36.01 -29.3 35.02 -31 34 C-26.15786389 20.40845955 -11.47671809 8.23077762 0 0 Z " fill="#550DFC" transform="translate(273,201)"/>
<path d="M0 0 C0.66 0.33 1.32 0.66 2 1 C2 1.66 2 2.32 2 3 C-0.87771795 4.91847864 -3.88626628 6.50079488 -7 8 C-6.4376049 4.73810844 -5.5859495 3.08865152 -3 1 C-2.01 0.67 -1.02 0.34 0 0 Z " fill="#EFE9FE" transform="translate(328,134)"/>
<path d="M0 0 C1.32 0 2.64 0 4 0 C4 1.98 4 3.96 4 6 C2.35 5.67 0.7 5.34 -1 5 C-0.67 3.35 -0.34 1.7 0 0 Z " fill="#F7B3B3" transform="translate(145,33)"/>
<path d="M0 0 C1.65 0.99 3.3 1.98 5 3 C4.67 3.99 4.34 4.98 4 6 C2.68 6 1.36 6 0 6 C0 4.02 0 2.04 0 0 Z " fill="#F48F8F" transform="translate(120,33)"/>
</svg>
